<?xml version="1.0" encoding="utf-8"?>
<!-- Generator: Adobe Illustrator 25.4.1, SVG Export Plug-In . SVG Version: 6.00 Build 0)  -->
<svg version="1.1" id="Capa_1" xmlns="http://www.w3.org/2000/svg" xmlns:xlink="http://www.w3.org/1999/xlink" x="0px" y="0px"
	 viewBox="0 0 141.7 127.6" style="enable-background:new 0 0 141.7 127.6;" xml:space="preserve">
<style type="text/css">
	.st0{fill:#FFFFFF;}
</style>
<g>
	<polygon class="st0" points="102.6,8.8 39.1,8.8 7.3,63.8 39.1,118.8 102.6,118.8 134.4,63.8 	"/>
	<g id="Capa_6">
		<path d="M69.7,96.5c-1.6-0.5-3-1.5-4.1-2.8c-0.8-0.8-1.6-1.6-2.5-2.4c-0.5-0.6-1.4-0.9-2.1-0.7c-1.8,0.3-3.6,0.5-5.3,0.8
			c-3.2,0.3-6.1-1.9-6.4-5.1c-0.3-1.6-0.6-3.1-0.8-4.7c-0.1-0.8-0.6-1.6-1.4-1.9c-1.5-0.7-2.9-1.5-4.3-2.3c-2-1-3.3-3-3.3-5.2
			c0-1,0.3-1.9,0.7-2.8c0.7-1.5,1.4-3,2.1-4.4c0.4-0.7,0.4-1.6,0-2.3c-0.7-1.5-1.4-2.9-2.1-4.4c-1.6-2.8-0.6-6.3,2.2-7.9
			c0.2-0.1,0.3-0.2,0.5-0.2c1.4-0.7,2.7-1.5,4.1-2.1c0.9-0.4,1.5-1.3,1.6-2.2c0.3-1.9,0.6-3.7,1.1-5.5c0.8-2.7,3.4-4.4,6.2-4.1
			c1.8,0.2,3.5,0.4,5.3,0.7c0.8,0.1,1.6-0.1,2.1-0.7l3.3-3.3c1.2-1.3,2.9-2.1,4.7-2c1.1,0,2.1,0.4,3,1.1c1.5,1.2,2.9,2.5,4.2,3.9
			c0.6,0.7,1.6,1.1,2.6,0.9c1.6-0.3,3.2-0.4,4.9-0.7c3.2-0.5,6.2,1.7,6.6,4.9c0,0.1,0,0.1,0,0.2c0.3,1.6,0.6,3.1,0.8,4.7
			c0.1,0.9,0.6,1.6,1.4,2c1.5,0.7,2.9,1.5,4.3,2.3c2,1,3.2,3,3.2,5.2c0,1-0.3,1.9-0.7,2.8c-0.7,1.5-1.4,2.9-2.1,4.4
			c-0.4,0.7-0.4,1.6,0,2.3c0.7,1.5,1.4,2.9,2.1,4.4c1.5,2.8,0.5,6.3-2.3,7.8c-0.1,0-0.2,0.1-0.3,0.1c-1.4,0.7-2.8,1.5-4.2,2.2
			c-0.9,0.4-1.6,1.3-1.6,2.3c-0.2,1.8-0.6,3.6-1,5.4c-0.8,2.7-3.4,4.5-6.2,4.1l-5.6-0.8c-0.7-0.1-1.4,0.2-1.8,0.7
			c-0.8,0.8-1.7,1.6-2.5,2.5C75,95,73.6,96,72,96.5L69.7,96.5z M86.7,87.5c1,0,1.8-0.7,1.9-1.7c0.3-1.7,0.6-3.4,0.9-5
			c0.2-1.9,1.5-3.6,3.2-4.5L97,74c1.6-0.8,1.8-1.6,1.1-3.2s-1.6-3.1-2.3-4.7c-0.7-1.5-0.7-3.2,0-4.6c0.7-1.6,1.5-3.2,2.3-4.7
			s0.5-2.4-1.1-3.2c-1.6-0.8-2.9-1.6-4.3-2.3c-1.7-0.9-2.9-2.5-3.1-4.4c-0.3-1.7-0.6-3.4-0.9-5.1c-0.1-1-1-1.8-2-1.7
			c-0.1,0-0.2,0-0.3,0c-1.6,0.2-3.1,0.4-4.7,0.7c-2.1,0.5-4.3-0.2-5.8-1.8c-1.1-1.1-2.1-2.1-3.2-3.2c-1.3-1.2-2.1-1.2-3.4,0
			s-2.5,2.5-3.7,3.6c-1.2,1.2-2.9,1.7-4.6,1.5c-1.8-0.2-3.6-0.5-5.4-0.8c-1-0.3-2,0.3-2.3,1.3c0,0.1,0,0.2-0.1,0.3
			c-0.3,1.7-0.6,3.4-0.9,5c-0.3,1.9-1.5,3.6-3.2,4.5l-4.1,2.2c-1.7,0.9-1.9,1.7-1.1,3.4c0.7,1.5,1.5,3,2.2,4.6
			c0.7,1.5,0.7,3.2,0,4.7c-0.7,1.6-1.5,3.1-2.3,4.7c-0.8,1.6-0.5,2.3,1,3.2l4.3,2.3c1.7,0.9,2.9,2.5,3.2,4.4
			c0.3,1.7,0.6,3.4,0.9,5.1c0.1,1,1.1,1.8,2.1,1.6c0,0,0,0,0,0c1.6-0.2,3.2-0.4,4.7-0.7c2.1-0.5,4.4,0.2,5.9,1.8
			c1.1,1.1,2.2,2.1,3.3,3.2s2.1,1.2,3.4,0c1.2-1.2,2.4-2.4,3.7-3.5c1.3-1.3,3.1-1.8,4.9-1.5L86.7,87.5z"/>
		<path d="M85.3,51.2c0,0.5-0.1,1-0.5,1.4c-0.2,0.2-0.3,0.4-0.5,0.6L60.2,77.2c-0.2,0.2-0.4,0.4-0.6,0.6c-0.8,0.7-2.1,0.5-2.7-0.3
			c-0.5-0.7-0.5-1.7,0-2.4c0.2-0.2,0.3-0.4,0.5-0.6l24.2-24.2c0.4-0.5,0.9-0.8,1.5-0.9c1-0.2,2,0.6,2.2,1.6
			C85.3,51.1,85.3,51.1,85.3,51.2z"/>
		<path d="M70.3,53.7c0,3.9-3.1,7-6.9,7s-7-3.1-7-6.9s3.1-7,6.9-7c0,0,0,0,0,0C67.1,46.7,70.2,49.8,70.3,53.7
			C70.3,53.7,70.3,53.7,70.3,53.7z M66.3,53.7c0-1.7-1.4-3-3-3s-3,1.4-3,3s1.4,3,3,3S66.3,55.4,66.3,53.7z"/>
		<path d="M85.4,73.9c0,3.9-3.2,7-7,7c-3.8,0-6.9-3.1-6.9-7c0,0,0-0.1,0-0.1c0-3.9,3.2-7,7-6.9C82.3,66.9,85.4,70,85.4,73.9
			L85.4,73.9z M78.4,70.8c-1.6,0-3,1.3-3,2.9c0,0,0,0.1,0,0.1c0,1.7,1.4,3,3,3s3-1.4,3-3l0,0c0-1.6-1.2-3-2.9-3
			C78.5,70.8,78.5,70.8,78.4,70.8z"/>
	</g>
</g>
</svg>
