<svg id="Capa_1" data-name="Capa 1" xmlns="http://www.w3.org/2000/svg" viewBox="0 0 255.39 83.72"><defs><style>.cls-1{fill:#333;}.cls-2{fill:#ffce00;}.cls-3{font-size:21.23px;fill:#f2f2f2;font-family:Montserrat-Bold, Montserrat;font-weight:700;letter-spacing:-0.04em;}.cls-4{letter-spacing:-0.06em;}.cls-5{letter-spacing:-0.05em;}.cls-6{letter-spacing:-0.03em;}.cls-7{fill:none;stroke:#333;stroke-linecap:round;stroke-linejoin:round;stroke-width:4px;}</style></defs><polygon class="cls-1" points="255.39 41.86 24.17 41.86 24.17 83.72 232.21 83.72 255.39 41.86"/><polygon class="cls-2" points="72.5 0 24.17 0 0 41.86 24.17 83.72 72.5 83.72 96.67 41.86 72.5 0"/><text class="cls-3" transform="translate(111.45 70.88)">Deli<tspan class="cls-4" x="39.89" y="0">v</tspan><tspan class="cls-5" x="51.31" y="0">e</tspan><tspan class="cls-6" x="63.75" y="0">r</tspan><tspan x="72.27" y="0">y</tspan></text><path class="cls-7" d="M52.53,24.48H60L52.53,59.92H44.08a4.19,4.19,0,0,0-4.2-5.32,6.93,6.93,0,0,0-6.44,5.32H25L28.5,43.16"/><path class="cls-7" d="M76.28,43.2,71.12,59.92h-4a4.2,4.2,0,0,0-4.21-5.32,6.93,6.93,0,0,0-6.44,5.32H52.53L60,24.48H74.9Z"/><path class="cls-7" d="M67.1,59.92a6.92,6.92,0,0,1-6.44,5.32,4.19,4.19,0,0,1-4.21-5.32,6.93,6.93,0,0,1,6.44-5.32A4.2,4.2,0,0,1,67.1,59.92Z"/><path class="cls-7" d="M44.08,59.92a6.9,6.9,0,0,1-6.43,5.32,4.19,4.19,0,0,1-4.21-5.32,6.93,6.93,0,0,1,6.44-5.32A4.19,4.19,0,0,1,44.08,59.92Z"/><polyline class="cls-7" points="69.2 24.48 65.28 43.2 76.28 43.2"/><line class="cls-7" x1="47.24" y1="24.48" x2="24.99" y2="24.48"/><line class="cls-7" x1="52.53" y1="31.49" x2="30.29" y2="31.49"/><line class="cls-7" x1="42.48" y1="38.5" x2="20.23" y2="38.5"/></svg>