<svg id="Capa_1" data-name="Capa 1" xmlns="http://www.w3.org/2000/svg" viewBox="0 0 96.6 91.77"><defs><style>.cls-1{fill:none;stroke:#000;stroke-linecap:round;stroke-linejoin:round;stroke-width:4px;}</style></defs><path class="cls-1" d="M63.77,44.77,69.66,75H32l5.88-30.2s-.61-3.34-3.84-1.11a90.78,90.78,0,0,0-7.78,6.42l-6.18-5.31S31.82,28.09,41.32,28.09l6.58,1a18,18,0,0,0,2.93.22,18.15,18.15,0,0,0,2.93-.22l6.57-1c9.51,0,21.25,16.68,21.25,16.68L75.4,50.08a90.78,90.78,0,0,0-7.78-6.42C64.38,41.43,63.77,44.77,63.77,44.77Z"/><path class="cls-1" d="M43.53,19.81l1.64-.41a20.19,20.19,0,0,1,11.19.41h0L50.83,25v4.29"/><line class="cls-1" x1="33.28" y1="68.39" x2="68.29" y2="68.39"/></svg>