<svg id="Capa_1" data-name="Capa 1" xmlns="http://www.w3.org/2000/svg" viewBox="0 0 255.39 83.72"><defs><style>.cls-1{fill:#ffce00;}.cls-2{font-size:21.23px;font-family:Montserrat-Bold, Montserrat;font-weight:700;letter-spacing:-0.04em;}.cls-2,.cls-6{fill:#333;}.cls-3{letter-spacing:-0.06em;}.cls-4{letter-spacing:-0.05em;}.cls-5{letter-spacing:-0.03em;}.cls-7{fill:none;stroke:#ffce00;stroke-linecap:round;stroke-linejoin:round;stroke-width:4px;}</style></defs><polygon class="cls-1" points="255.39 41.86 24.17 41.86 24.17 83.72 232.21 83.72 255.39 41.86"/><text class="cls-2" transform="translate(111.45 70.88)">Deli<tspan class="cls-3" x="39.89" y="0">v</tspan><tspan class="cls-4" x="51.31" y="0">e</tspan><tspan class="cls-5" x="63.75" y="0">r</tspan><tspan x="72.27" y="0">y</tspan></text><polygon class="cls-6" points="72.5 0 24.17 0 0 41.86 24.17 83.72 72.5 83.72 96.67 41.86 72.5 0"/><path class="cls-7" d="M52,24.8V60.24H43.53a5.32,5.32,0,0,0-10.64,0H24.44V24.8Z"/><path class="cls-7" d="M72.23,43.52,70.57,60.24h-4a5.32,5.32,0,0,0-10.64,0H52V24.8H66.92Z"/><path class="cls-7" d="M66.54,60.24a5.32,5.32,0,1,1-5.31-5.31A5.32,5.32,0,0,1,66.54,60.24Z"/><path class="cls-7" d="M43.53,60.24a5.32,5.32,0,1,1-5.32-5.31A5.33,5.33,0,0,1,43.53,60.24Z"/><polyline class="cls-7" points="61.22 24.8 61.22 43.52 72.23 43.52"/></svg>