<?xml version="1.0" encoding="utf-8"?>
<!-- Generator: Adobe Illustrator 25.4.1, SVG Export Plug-In . SVG Version: 6.00 Build 0)  -->
<svg version="1.1" id="Capa_1" xmlns="http://www.w3.org/2000/svg" xmlns:xlink="http://www.w3.org/1999/xlink" x="0px" y="0px"
	 viewBox="0 0 141.7 127.6" style="enable-background:new 0 0 141.7 127.6;" xml:space="preserve">
<style type="text/css">
	.st0{fill:#FFFFFF;}
</style>
<g>
	<polygon class="st0" points="102.6,8.8 39.1,8.8 7.3,63.8 39.1,118.8 102.6,118.8 134.4,63.8 	"/>
	<g id="Capa_6">
		<path d="M51.2,83.6h-4.1c-1-0.2-1.6-1.1-1.4-2.1c0.1-0.7,0.7-1.3,1.4-1.4h3.5C50.6,81.3,50.8,82.5,51.2,83.6z"/>
		<path d="M101.6,83.6h-5.8v-3.5h5.8V66.4l-2.9-9H83.3V40H47.1c-0.9-0.1-1.6-0.8-1.6-1.8c0,0,0,0,0,0l0,0c-0.1-0.9,0.6-1.7,1.5-1.8
			c0,0,0,0,0,0h39.3v17.5h14.5l3.8,11.9v14.3C104.8,81.9,103.4,83.5,101.6,83.6z"/>
		<path d="M81.2,80.1v3.5h-8.7c0.4-1.1,0.6-2.3,0.6-3.5H81.2z"/>
		<path d="M98.4,56.2l-3-10H84.9v-3.5h10c1.7,0.1,3.2,1.3,3.6,3l2.8,9.5L98.4,56.2z"/>
		<path d="M65.2,48.1H43.1c-0.9-0.1-1.6-0.8-1.6-1.8c0,0,0,0,0,0l0,0c-0.1-0.9,0.6-1.7,1.5-1.8c0,0,0,0,0,0h22.1
			c0.9,0.1,1.6,0.8,1.6,1.8c0,0,0,0,0,0l0,0C66.9,47.2,66.2,48.1,65.2,48.1C65.2,48.1,65.2,48.1,65.2,48.1z"/>
		<path d="M58.3,58.1H38.5c-0.9-0.1-1.6-0.8-1.6-1.8c0,0,0,0,0,0l0,0c-0.1-0.9,0.6-1.7,1.5-1.8c0,0,0,0,0,0h19.7
			c0.9,0.1,1.6,0.8,1.6,1.8c0,0,0,0,0,0l0,0C59.9,57.3,59.2,58.1,58.3,58.1C58.3,58.1,58.3,58.1,58.3,58.1z"/>
		<path d="M53.5,68.1H40.6c-0.9-0.1-1.6-0.8-1.6-1.8c0,0,0,0,0,0l0,0c-0.1-0.9,0.6-1.7,1.5-1.8c0,0,0,0,0,0h12.9
			c0.9,0.1,1.6,0.8,1.6,1.8c0,0,0,0,0,0l0,0C55.1,67.3,54.4,68.1,53.5,68.1C53.5,68.1,53.5,68.1,53.5,68.1z"/>
		<path d="M88.2,91.2c-5.3,0-9.6-4.3-9.6-9.6c0-5.3,4.3-9.6,9.6-9.6c5.3,0,9.6,4.3,9.6,9.6c0,0,0,0,0,0
			C97.8,86.9,93.5,91.2,88.2,91.2z M88.2,74.6c-3.8,0-7,3.1-7,6.9s3.1,7,6.9,7c3.8,0,7-3.1,7-6.9c0,0,0,0,0,0
			C95.2,77.8,92.1,74.6,88.2,74.6z"/>
		<path d="M61.8,68.8c-6.2,0-11.2,5-11.2,11.2v0.1c0,1.2,0.2,2.4,0.6,3.5c2,5.9,8.4,9,14.3,6.9c3.2-1.1,5.8-3.7,6.9-6.9
			c0.4-1.1,0.6-2.3,0.6-3.5v-0.1C73,73.8,68,68.8,61.8,68.8z M69.1,83.5c-2,4-6.8,5.7-10.9,3.7c-2.7-1.3-4.5-4.1-4.5-7.2v-0.1
			c0-4.5,3.6-8.1,8.1-8.1c4.5,0,8.1,3.6,8.1,8.1c0,0,0,0,0,0v0.1C69.9,81.3,69.6,82.5,69.1,83.5z"/>
	</g>
</g>
</svg>
