<?xml version="1.0" encoding="utf-8"?>
<!-- Generator: Adobe Illustrator 25.4.1, SVG Export Plug-In . SVG Version: 6.00 Build 0)  -->
<svg version="1.1" id="Capa_1" xmlns="http://www.w3.org/2000/svg" xmlns:xlink="http://www.w3.org/1999/xlink" x="0px" y="0px"
	 viewBox="0 0 141.7 127.6" style="enable-background:new 0 0 141.7 127.6;" xml:space="preserve">
<style type="text/css">
	.st0{fill:#FFFFFF;}
	.st1{stroke:#000000;stroke-miterlimit:10;}
</style>
<g>
	<polygon class="st0" points="102.6,8.8 39.1,8.8 7.3,63.8 39.1,118.8 102.6,118.8 134.4,63.8 	"/>
	<g id="Capa_6">
		<path class="st1" d="M78.7,95c-1-0.1-2-0.4-3-0.7c-1-0.3-2-0.6-3-0.9c-1.2-0.4-2.5-0.4-3.7,0c-1.6,0.6-3.3,1.1-5,1.5
			c-2.8,0.7-5.8-0.5-7.4-2.8c-1-1.3-1.9-2.8-2.8-4.2c-0.6-1-1.6-1.8-2.7-2.3c-1.3-0.5-2.6-1.1-4-1.7c-2.5-0.9-4.3-3.1-4.7-5.7
			c-0.2-1.2-0.1-2.4,0.1-3.6c0.1-1.2,0.3-2.4,0.4-3.6c0.1-1-0.1-1.9-0.5-2.8l-2.1-4.2c-1.7-3.2-1-7.1,1.8-9.4c1.1-1,2.1-2,3.1-2.9
			c0.8-0.8,1.4-1.8,1.6-2.9c0.3-1.5,0.7-2.9,1-4.4c0.7-3.4,3.6-5.8,7.1-5.9c1.7-0.1,3.4-0.2,5.1-0.3c0.9-0.1,1.8-0.4,2.5-1l3.7-2.7
			c2.7-2.3,6.7-2.3,9.4,0c1.2,0.9,2.3,1.7,3.5,2.6c0.9,0.7,2.1,1.1,3.3,1.2l4.6,0.3c3.4,0.1,6.2,2.5,6.9,5.8c0.4,1.4,0.7,2.9,1,4.4
			c0.2,1.2,0.8,2.3,1.7,3.1c1,1,2,2,3.1,2.9c2.7,2.3,3.5,6.2,1.8,9.3c-0.6,1.2-1.1,2.3-1.8,3.4c-0.8,1.5-1.1,3.2-0.7,4.8
			c0.3,1.6,0.4,3.1,0.5,4.7c0.1,2.8-1.5,5.3-4,6.5c-1.5,0.8-3,1.4-4.6,2c-1.2,0.5-2.2,1.3-2.9,2.4c-0.8,1.3-1.6,2.6-2.5,3.8
			C84,93.8,81.9,94.9,78.7,95z M79.2,92.8c1.8,0,3.5-0.9,4.4-2.4c0.9-1.3,1.8-2.7,2.7-4.1c0.8-1.2,2-2.2,3.4-2.8
			c1.5-0.6,2.9-1.2,4.4-1.9c2.1-0.8,3.4-2.9,3.2-5.1c-0.1-1.6-0.3-3.1-0.5-4.6c-0.3-1.7,0-3.5,0.8-5.1c0.7-1.4,1.4-2.8,2.1-4.2
			c1.1-2,0.6-4.6-1-6.1c-1-1-2.1-2-3.2-3c-1.3-1.1-2.2-2.7-2.6-4.4c-0.4-1.6-0.7-3.2-1.1-4.7c-0.5-2-2.3-3.5-4.3-3.7
			c-1.4-0.1-2.7-0.2-4.1-0.2c-2.2,0-4.3-0.7-5.9-2.1c-1-0.9-2.1-1.6-3.2-2.4c-1.9-1.5-4.6-1.5-6.5,0.1l-3.8,2.8
			c-0.9,0.7-1.9,1.1-3.1,1.3c-1.7,0.2-3.5,0.3-5.2,0.3c-2.7-0.1-5,1.7-5.5,4.3c-0.3,1.4-0.7,2.7-1,4.1c-0.4,1.8-1.3,3.4-2.7,4.6
			c-1,0.9-2,1.9-3,2.8c-1.9,1.6-2.3,4.4-1.1,6.5c0.7,1.4,1.4,2.8,2.1,4.3c0.6,1.1,0.9,2.4,0.8,3.6c-0.1,1.8-0.4,3.6-0.6,5.4
			c-0.4,2.4,1,4.8,3.2,5.6l4.3,1.8c1.4,0.6,2.7,1.6,3.5,2.9c0.8,1.2,1.6,2.5,2.4,3.7c1.3,2.3,4,3.3,6.5,2.3c1.5-0.4,2.9-0.9,4.4-1.3
			c0.9-0.3,1.9-0.4,2.9-0.2c1.4,0.3,2.8,0.6,4.1,1.1C76.9,92.4,78.1,92.7,79.2,92.8z"/>
		<path class="st1" d="M50,63.8C50,52.3,59.3,43,70.8,43s20.9,9.3,20.9,20.8c0,11.5-9.3,20.9-20.8,20.9c0,0-0.1,0-0.1,0
			C59.4,84.6,50.1,75.3,50,63.8z M52.2,63.8c0,10.3,8.4,18.6,18.7,18.6s18.6-8.4,18.6-18.7c0-10.3-8.4-18.6-18.6-18.6
			c-10.3,0-18.6,8.3-18.6,18.5C52.2,63.8,52.2,63.8,52.2,63.8z"/>
		<path class="st1" d="M58.4,63.2c0-1.5,0.8-2.8,2.1-3.4c1.3-0.7,2.9-0.6,4,0.4c1.1,1,2.2,2,3.2,3.1c0.7,0.7,0.5,0.7,1.2,0
			c2.6-2.6,5.2-5.2,7.8-7.8c1.5-1.5,3.9-1.6,5.5-0.2c1.5,1.5,1.6,3.9,0.2,5.5c-0.1,0.1-0.2,0.2-0.3,0.3l-9.4,9.6
			c-0.5,0.5-1,1-1.5,1.5c-1.4,1.5-3.8,1.6-5.4,0.1c0,0,0,0,0,0c-2.2-2.1-4.2-4.2-6.3-6.4C58.7,65.1,58.3,64.2,58.4,63.2z M62.2,61.6
			c-0.2,0-0.4,0-0.6,0.1c-0.9,0.3-1.3,1.3-1,2.2c0.1,0.3,0.3,0.5,0.5,0.7c1.9,2,3.9,3.9,5.8,5.8c0.5,0.8,1.6,1,2.4,0.5
			c0.2-0.1,0.3-0.3,0.5-0.5l10.5-10.6c1-1,1.1-2,0.3-2.8c-0.8-0.8-1.7-0.6-2.7,0.4c-2.8,2.9-5.6,5.7-8.5,8.6c-0.8,0.8-1.3,0.8-2.2,0
			l-3.7-3.7C63.2,61.8,62.7,61.5,62.2,61.6z"/>
	</g>
</g>
</svg>
