<?xml version="1.0" encoding="utf-8"?>
<!-- Generator: Adobe Illustrator 25.4.1, SVG Export Plug-In . SVG Version: 6.00 Build 0)  -->
<svg version="1.1" id="Capa_1" xmlns="http://www.w3.org/2000/svg" xmlns:xlink="http://www.w3.org/1999/xlink" x="0px" y="0px"
	 viewBox="0 0 141.7 127.6" style="enable-background:new 0 0 141.7 127.6;" xml:space="preserve">
<style type="text/css">
	.st0{fill:#FFFFFF;}
</style>
<g>
	<polygon class="st0" points="102.6,8.8 39.1,8.8 7.3,63.8 39.1,118.8 102.6,118.8 134.4,63.8 	"/>
	<g id="Capa_6">
		<path d="M93.5,65.7c0.7,0,1.2,0.5,1.2,1.2c0,0,0,0,0,0v19.6c0,0.7-0.5,1.2-1.2,1.2c0,0,0,0,0,0H74c-0.7,0-1.2-0.5-1.2-1.2V66.9
			c0-0.7,0.5-1.2,1.2-1.2H93.5 M93.5,61.9H74c-2.7,0-5,2.2-5,5v19.6c0,2.7,2.2,5,5,5h19.6c2.7,0,5-2.2,5-5c0,0,0,0,0,0V66.9
			C98.5,64.1,96.3,61.9,93.5,61.9C93.5,61.9,93.5,61.9,93.5,61.9z"/>
		<path d="M67.7,65.7c0.7,0,1.2,0.5,1.2,1.2v19.6c0,0.7-0.5,1.2-1.2,1.2H48.2c-0.7,0-1.2-0.5-1.2-1.2V66.9c0-0.7,0.5-1.2,1.2-1.2
			H67.7 M67.7,61.9H48.2c-2.7,0-5,2.2-5,5v19.6c0,2.7,2.2,5,5,5h19.5c2.7,0,5-2.2,5-5V66.9C72.7,64.1,70.5,61.9,67.7,61.9z"/>
		<path d="M80.7,39.9c0.7,0,1.2,0.5,1.2,1.2c0,0,0,0,0,0v19.6c0,0.7-0.5,1.2-1.2,1.2H61.1c-0.7,0-1.2-0.5-1.2-1.2V41.1
			c0-0.7,0.5-1.2,1.2-1.2c0,0,0,0,0,0H80.7 M80.7,36.2H61.1c-2.7,0-5,2.2-5,5c0,0,0,0,0,0v19.6c0,2.7,2.2,5,5,5h19.5
			c2.7,0,5-2.2,5-5V41.1C85.6,38.4,83.4,36.2,80.7,36.2C80.7,36.2,80.7,36.2,80.7,36.2z"/>
	</g>
</g>
</svg>
